<mxfile host="app.diagrams.net" modified="2023-12-03T16:40:06.581Z" agent="Mozilla/5.0 (Windows NT 10.0; Win64; x64) AppleWebKit/537.36 (KHTML, like Gecko) Chrome/119.0.0.0 Safari/537.36" etag="YC_6AxohfraXMMbGqQ9X" version="22.1.5" type="github">
  <diagram name="Страница — 1" id="O9m3HWiT0rDLwpiYa4zb">
    <mxGraphModel dx="1050" dy="565" grid="1" gridSize="10" guides="1" tooltips="1" connect="1" arrows="1" fold="1" page="1" pageScale="1" pageWidth="827" pageHeight="1169" math="0" shadow="0">
      <root>
        <mxCell id="0" />
        <mxCell id="1" parent="0" />
        <mxCell id="Kq5wCflxJIi67rFvFhmN-5" value="" style="edgeStyle=orthogonalEdgeStyle;rounded=0;orthogonalLoop=1;jettySize=auto;html=1;" edge="1" parent="1" source="Kq5wCflxJIi67rFvFhmN-1" target="Kq5wCflxJIi67rFvFhmN-4">
          <mxGeometry relative="1" as="geometry" />
        </mxCell>
        <mxCell id="Kq5wCflxJIi67rFvFhmN-1" value="Beginning" style="ellipse;whiteSpace=wrap;html=1;" vertex="1" parent="1">
          <mxGeometry x="310" y="40" width="120" height="40" as="geometry" />
        </mxCell>
        <mxCell id="Kq5wCflxJIi67rFvFhmN-3" value="const MAX_PEOPLE=100" style="rounded=0;whiteSpace=wrap;html=1;" vertex="1" parent="1">
          <mxGeometry x="310" y="110" width="120" height="40" as="geometry" />
        </mxCell>
        <mxCell id="Kq5wCflxJIi67rFvFhmN-11" value="" style="edgeStyle=orthogonalEdgeStyle;rounded=0;orthogonalLoop=1;jettySize=auto;html=1;" edge="1" parent="1" source="Kq5wCflxJIi67rFvFhmN-4" target="Kq5wCflxJIi67rFvFhmN-7">
          <mxGeometry relative="1" as="geometry" />
        </mxCell>
        <mxCell id="Kq5wCflxJIi67rFvFhmN-4" value="Person:&lt;br&gt;lastName&lt;br&gt;firstName&lt;br&gt;middleName&lt;br&gt;address&lt;br&gt;phoneNumber&lt;br&gt;age" style="rounded=0;whiteSpace=wrap;html=1;" vertex="1" parent="1">
          <mxGeometry x="320" y="170" width="100" height="120" as="geometry" />
        </mxCell>
        <mxCell id="Kq5wCflxJIi67rFvFhmN-6" value="" style="endArrow=classic;html=1;rounded=0;entryX=0.5;entryY=0;entryDx=0;entryDy=0;exitX=0.5;exitY=1;exitDx=0;exitDy=0;exitPerimeter=0;" edge="1" parent="1" source="Kq5wCflxJIi67rFvFhmN-1" target="Kq5wCflxJIi67rFvFhmN-3">
          <mxGeometry width="50" height="50" relative="1" as="geometry">
            <mxPoint x="410" y="250" as="sourcePoint" />
            <mxPoint x="460" y="200" as="targetPoint" />
          </mxGeometry>
        </mxCell>
        <mxCell id="Kq5wCflxJIi67rFvFhmN-12" value="" style="edgeStyle=orthogonalEdgeStyle;rounded=0;orthogonalLoop=1;jettySize=auto;html=1;" edge="1" parent="1" source="Kq5wCflxJIi67rFvFhmN-7" target="Kq5wCflxJIi67rFvFhmN-9">
          <mxGeometry relative="1" as="geometry" />
        </mxCell>
        <mxCell id="Kq5wCflxJIi67rFvFhmN-13" value="" style="edgeStyle=orthogonalEdgeStyle;rounded=0;orthogonalLoop=1;jettySize=auto;html=1;" edge="1" parent="1" source="Kq5wCflxJIi67rFvFhmN-7" target="Kq5wCflxJIi67rFvFhmN-8">
          <mxGeometry relative="1" as="geometry" />
        </mxCell>
        <mxCell id="Kq5wCflxJIi67rFvFhmN-7" value="printPerson" style="rounded=0;whiteSpace=wrap;html=1;" vertex="1" parent="1">
          <mxGeometry x="325" y="320" width="90" height="30" as="geometry" />
        </mxCell>
        <mxCell id="Kq5wCflxJIi67rFvFhmN-8" value="Output lastName&lt;br&gt;firstName&lt;br style=&quot;border-color: var(--border-color);&quot;&gt;middleName&lt;br style=&quot;border-color: var(--border-color);&quot;&gt;address&lt;br style=&quot;border-color: var(--border-color);&quot;&gt;phoneNumber&lt;br style=&quot;border-color: var(--border-color);&quot;&gt;age" style="shape=parallelogram;perimeter=parallelogramPerimeter;whiteSpace=wrap;html=1;fixedSize=1;" vertex="1" parent="1">
          <mxGeometry x="440" y="282.5" width="130" height="105" as="geometry" />
        </mxCell>
        <mxCell id="Kq5wCflxJIi67rFvFhmN-14" value="" style="edgeStyle=orthogonalEdgeStyle;rounded=0;orthogonalLoop=1;jettySize=auto;html=1;" edge="1" parent="1" source="Kq5wCflxJIi67rFvFhmN-9" target="Kq5wCflxJIi67rFvFhmN-10">
          <mxGeometry relative="1" as="geometry" />
        </mxCell>
        <mxCell id="Kq5wCflxJIi67rFvFhmN-16" value="" style="edgeStyle=orthogonalEdgeStyle;rounded=0;orthogonalLoop=1;jettySize=auto;html=1;" edge="1" parent="1" source="Kq5wCflxJIi67rFvFhmN-9" target="Kq5wCflxJIi67rFvFhmN-15">
          <mxGeometry relative="1" as="geometry" />
        </mxCell>
        <mxCell id="Kq5wCflxJIi67rFvFhmN-9" value="writeToFile" style="rounded=0;whiteSpace=wrap;html=1;" vertex="1" parent="1">
          <mxGeometry x="325" y="440" width="90" height="30" as="geometry" />
        </mxCell>
        <mxCell id="Kq5wCflxJIi67rFvFhmN-10" value="Input Person&lt;br&gt;in file" style="shape=parallelogram;perimeter=parallelogramPerimeter;whiteSpace=wrap;html=1;fixedSize=1;" vertex="1" parent="1">
          <mxGeometry x="440" y="425" width="120" height="60" as="geometry" />
        </mxCell>
        <mxCell id="Kq5wCflxJIi67rFvFhmN-18" value="" style="edgeStyle=orthogonalEdgeStyle;rounded=0;orthogonalLoop=1;jettySize=auto;html=1;" edge="1" parent="1" source="Kq5wCflxJIi67rFvFhmN-15" target="Kq5wCflxJIi67rFvFhmN-17">
          <mxGeometry relative="1" as="geometry" />
        </mxCell>
        <mxCell id="Kq5wCflxJIi67rFvFhmN-28" value="" style="edgeStyle=orthogonalEdgeStyle;rounded=0;orthogonalLoop=1;jettySize=auto;html=1;exitX=0.5;exitY=1;exitDx=0;exitDy=0;" edge="1" parent="1" source="Kq5wCflxJIi67rFvFhmN-15" target="Kq5wCflxJIi67rFvFhmN-19">
          <mxGeometry relative="1" as="geometry">
            <mxPoint x="370" y="630" as="sourcePoint" />
          </mxGeometry>
        </mxCell>
        <mxCell id="Kq5wCflxJIi67rFvFhmN-15" value="readFromFile" style="rounded=0;whiteSpace=wrap;html=1;" vertex="1" parent="1">
          <mxGeometry x="315" y="545" width="110" height="40" as="geometry" />
        </mxCell>
        <mxCell id="Kq5wCflxJIi67rFvFhmN-25" value="" style="edgeStyle=orthogonalEdgeStyle;rounded=0;orthogonalLoop=1;jettySize=auto;html=1;" edge="1" parent="1" source="Kq5wCflxJIi67rFvFhmN-17" target="Kq5wCflxJIi67rFvFhmN-22">
          <mxGeometry relative="1" as="geometry" />
        </mxCell>
        <mxCell id="Kq5wCflxJIi67rFvFhmN-17" value="Read from file" style="shape=parallelogram;perimeter=parallelogramPerimeter;whiteSpace=wrap;html=1;fixedSize=1;" vertex="1" parent="1">
          <mxGeometry x="450" y="547.5" width="120" height="35" as="geometry" />
        </mxCell>
        <mxCell id="Kq5wCflxJIi67rFvFhmN-49" value="" style="edgeStyle=orthogonalEdgeStyle;rounded=0;orthogonalLoop=1;jettySize=auto;html=1;" edge="1" parent="1" source="Kq5wCflxJIi67rFvFhmN-19" target="Kq5wCflxJIi67rFvFhmN-20">
          <mxGeometry relative="1" as="geometry" />
        </mxCell>
        <mxCell id="Kq5wCflxJIi67rFvFhmN-19" value="deleteByAge" style="rounded=0;whiteSpace=wrap;html=1;" vertex="1" parent="1">
          <mxGeometry x="325" y="710" width="90" height="40" as="geometry" />
        </mxCell>
        <mxCell id="Kq5wCflxJIi67rFvFhmN-50" value="" style="edgeStyle=orthogonalEdgeStyle;rounded=0;orthogonalLoop=1;jettySize=auto;html=1;" edge="1" parent="1" source="Kq5wCflxJIi67rFvFhmN-20" target="Kq5wCflxJIi67rFvFhmN-21">
          <mxGeometry relative="1" as="geometry" />
        </mxCell>
        <mxCell id="Kq5wCflxJIi67rFvFhmN-20" value="int newSize=0" style="rounded=0;whiteSpace=wrap;html=1;" vertex="1" parent="1">
          <mxGeometry x="450" y="715" width="100" height="30" as="geometry" />
        </mxCell>
        <mxCell id="Kq5wCflxJIi67rFvFhmN-39" value="" style="edgeStyle=orthogonalEdgeStyle;rounded=0;orthogonalLoop=1;jettySize=auto;html=1;" edge="1" parent="1" source="Kq5wCflxJIi67rFvFhmN-21" target="Kq5wCflxJIi67rFvFhmN-38">
          <mxGeometry relative="1" as="geometry" />
        </mxCell>
        <mxCell id="Kq5wCflxJIi67rFvFhmN-47" value="" style="edgeStyle=orthogonalEdgeStyle;rounded=0;orthogonalLoop=1;jettySize=auto;html=1;" edge="1" parent="1" source="Kq5wCflxJIi67rFvFhmN-21" target="Kq5wCflxJIi67rFvFhmN-40">
          <mxGeometry relative="1" as="geometry" />
        </mxCell>
        <mxCell id="Kq5wCflxJIi67rFvFhmN-21" value="for(int i=0; i&amp;lt; size; ++i)" style="shape=hexagon;perimeter=hexagonPerimeter2;whiteSpace=wrap;html=1;fixedSize=1;" vertex="1" parent="1">
          <mxGeometry x="580" y="710" width="120" height="40" as="geometry" />
        </mxCell>
        <mxCell id="Kq5wCflxJIi67rFvFhmN-26" value="" style="edgeStyle=orthogonalEdgeStyle;rounded=0;orthogonalLoop=1;jettySize=auto;html=1;" edge="1" parent="1" source="Kq5wCflxJIi67rFvFhmN-22" target="Kq5wCflxJIi67rFvFhmN-23">
          <mxGeometry relative="1" as="geometry" />
        </mxCell>
        <mxCell id="Kq5wCflxJIi67rFvFhmN-22" value="int size=0" style="rounded=0;whiteSpace=wrap;html=1;" vertex="1" parent="1">
          <mxGeometry x="590" y="550" width="100" height="30" as="geometry" />
        </mxCell>
        <mxCell id="Kq5wCflxJIi67rFvFhmN-27" value="" style="edgeStyle=orthogonalEdgeStyle;rounded=0;orthogonalLoop=1;jettySize=auto;html=1;" edge="1" parent="1" source="Kq5wCflxJIi67rFvFhmN-23" target="Kq5wCflxJIi67rFvFhmN-24">
          <mxGeometry relative="1" as="geometry" />
        </mxCell>
        <mxCell id="Kq5wCflxJIi67rFvFhmN-37" value="" style="edgeStyle=orthogonalEdgeStyle;rounded=0;orthogonalLoop=1;jettySize=auto;html=1;" edge="1" parent="1" source="Kq5wCflxJIi67rFvFhmN-23" target="Kq5wCflxJIi67rFvFhmN-36">
          <mxGeometry relative="1" as="geometry" />
        </mxCell>
        <mxCell id="Kq5wCflxJIi67rFvFhmN-23" value="for(int i=0; i&amp;lt; sizeOfPerosn; i++)" style="shape=hexagon;perimeter=hexagonPerimeter2;whiteSpace=wrap;html=1;fixedSize=1;" vertex="1" parent="1">
          <mxGeometry x="710" y="542.5" width="120" height="45" as="geometry" />
        </mxCell>
        <mxCell id="Kq5wCflxJIi67rFvFhmN-24" value="size=size+1" style="rounded=0;whiteSpace=wrap;html=1;" vertex="1" parent="1">
          <mxGeometry x="860" y="547.5" width="80" height="35" as="geometry" />
        </mxCell>
        <mxCell id="Kq5wCflxJIi67rFvFhmN-31" value="" style="endArrow=none;html=1;rounded=0;entryX=0.5;entryY=0;entryDx=0;entryDy=0;" edge="1" parent="1" target="Kq5wCflxJIi67rFvFhmN-24">
          <mxGeometry width="50" height="50" relative="1" as="geometry">
            <mxPoint x="900" y="500" as="sourcePoint" />
            <mxPoint x="610" y="600" as="targetPoint" />
          </mxGeometry>
        </mxCell>
        <mxCell id="Kq5wCflxJIi67rFvFhmN-32" value="" style="endArrow=none;html=1;rounded=0;" edge="1" parent="1">
          <mxGeometry width="50" height="50" relative="1" as="geometry">
            <mxPoint x="770" y="500" as="sourcePoint" />
            <mxPoint x="900" y="500" as="targetPoint" />
          </mxGeometry>
        </mxCell>
        <mxCell id="Kq5wCflxJIi67rFvFhmN-33" value="" style="endArrow=classic;html=1;rounded=0;entryX=0.5;entryY=0;entryDx=0;entryDy=0;" edge="1" parent="1" target="Kq5wCflxJIi67rFvFhmN-23">
          <mxGeometry width="50" height="50" relative="1" as="geometry">
            <mxPoint x="770" y="500" as="sourcePoint" />
            <mxPoint x="740" y="600" as="targetPoint" />
          </mxGeometry>
        </mxCell>
        <mxCell id="Kq5wCflxJIi67rFvFhmN-36" value="Close file" style="shape=parallelogram;perimeter=parallelogramPerimeter;whiteSpace=wrap;html=1;fixedSize=1;" vertex="1" parent="1">
          <mxGeometry x="730" y="620" width="80" height="40" as="geometry" />
        </mxCell>
        <mxCell id="Kq5wCflxJIi67rFvFhmN-38" value="size=newSize" style="rounded=0;whiteSpace=wrap;html=1;" vertex="1" parent="1">
          <mxGeometry x="595" y="770" width="90" height="40" as="geometry" />
        </mxCell>
        <mxCell id="Kq5wCflxJIi67rFvFhmN-48" value="" style="edgeStyle=orthogonalEdgeStyle;rounded=0;orthogonalLoop=1;jettySize=auto;html=1;" edge="1" parent="1" source="Kq5wCflxJIi67rFvFhmN-40" target="Kq5wCflxJIi67rFvFhmN-41">
          <mxGeometry relative="1" as="geometry" />
        </mxCell>
        <mxCell id="Kq5wCflxJIi67rFvFhmN-40" value="people[i].age!=&lt;br&gt;ageToDelete" style="rhombus;whiteSpace=wrap;html=1;" vertex="1" parent="1">
          <mxGeometry x="720" y="690" width="80" height="80" as="geometry" />
        </mxCell>
        <mxCell id="Kq5wCflxJIi67rFvFhmN-41" value="people[newSize++]=&lt;br&gt;people[i]" style="rounded=0;whiteSpace=wrap;html=1;" vertex="1" parent="1">
          <mxGeometry x="830" y="705" width="120" height="50" as="geometry" />
        </mxCell>
        <mxCell id="Kq5wCflxJIi67rFvFhmN-42" value="" style="endArrow=none;html=1;rounded=0;entryX=0.5;entryY=0;entryDx=0;entryDy=0;" edge="1" parent="1" target="Kq5wCflxJIi67rFvFhmN-41">
          <mxGeometry width="50" height="50" relative="1" as="geometry">
            <mxPoint x="890" y="680" as="sourcePoint" />
            <mxPoint x="740" y="600" as="targetPoint" />
          </mxGeometry>
        </mxCell>
        <mxCell id="Kq5wCflxJIi67rFvFhmN-43" value="" style="endArrow=none;html=1;rounded=0;" edge="1" parent="1">
          <mxGeometry width="50" height="50" relative="1" as="geometry">
            <mxPoint x="640" y="680" as="sourcePoint" />
            <mxPoint x="890" y="680" as="targetPoint" />
          </mxGeometry>
        </mxCell>
        <mxCell id="Kq5wCflxJIi67rFvFhmN-44" value="" style="endArrow=classic;html=1;rounded=0;entryX=0.5;entryY=0;entryDx=0;entryDy=0;" edge="1" parent="1" target="Kq5wCflxJIi67rFvFhmN-21">
          <mxGeometry width="50" height="50" relative="1" as="geometry">
            <mxPoint x="640" y="680" as="sourcePoint" />
            <mxPoint x="740" y="600" as="targetPoint" />
          </mxGeometry>
        </mxCell>
        <mxCell id="Kq5wCflxJIi67rFvFhmN-45" value="" style="endArrow=classic;html=1;rounded=0;exitX=0.5;exitY=0;exitDx=0;exitDy=0;" edge="1" parent="1" source="Kq5wCflxJIi67rFvFhmN-40">
          <mxGeometry width="50" height="50" relative="1" as="geometry">
            <mxPoint x="690" y="650" as="sourcePoint" />
            <mxPoint x="760" y="680" as="targetPoint" />
          </mxGeometry>
        </mxCell>
        <mxCell id="Kq5wCflxJIi67rFvFhmN-46" value="" style="endArrow=classic;html=1;rounded=0;exitX=0.5;exitY=0;exitDx=0;exitDy=0;" edge="1" parent="1" source="Kq5wCflxJIi67rFvFhmN-41">
          <mxGeometry width="50" height="50" relative="1" as="geometry">
            <mxPoint x="690" y="650" as="sourcePoint" />
            <mxPoint x="890" y="680" as="targetPoint" />
          </mxGeometry>
        </mxCell>
        <mxCell id="Kq5wCflxJIi67rFvFhmN-58" value="" style="edgeStyle=orthogonalEdgeStyle;rounded=0;orthogonalLoop=1;jettySize=auto;html=1;" edge="1" parent="1" source="Kq5wCflxJIi67rFvFhmN-51" target="Kq5wCflxJIi67rFvFhmN-53">
          <mxGeometry relative="1" as="geometry" />
        </mxCell>
        <mxCell id="Kq5wCflxJIi67rFvFhmN-72" value="" style="edgeStyle=orthogonalEdgeStyle;rounded=0;orthogonalLoop=1;jettySize=auto;html=1;" edge="1" parent="1" source="Kq5wCflxJIi67rFvFhmN-51" target="Kq5wCflxJIi67rFvFhmN-71">
          <mxGeometry relative="1" as="geometry" />
        </mxCell>
        <mxCell id="Kq5wCflxJIi67rFvFhmN-51" value="addNumber" style="rounded=0;whiteSpace=wrap;html=1;" vertex="1" parent="1">
          <mxGeometry x="330" y="880" width="80" height="40" as="geometry" />
        </mxCell>
        <mxCell id="Kq5wCflxJIi67rFvFhmN-52" value="" style="endArrow=classic;html=1;rounded=0;exitX=0.5;exitY=1;exitDx=0;exitDy=0;entryX=0.5;entryY=0;entryDx=0;entryDy=0;" edge="1" parent="1" source="Kq5wCflxJIi67rFvFhmN-19" target="Kq5wCflxJIi67rFvFhmN-51">
          <mxGeometry width="50" height="50" relative="1" as="geometry">
            <mxPoint x="540" y="810" as="sourcePoint" />
            <mxPoint x="590" y="760" as="targetPoint" />
          </mxGeometry>
        </mxCell>
        <mxCell id="Kq5wCflxJIi67rFvFhmN-60" value="" style="edgeStyle=orthogonalEdgeStyle;rounded=0;orthogonalLoop=1;jettySize=auto;html=1;" edge="1" parent="1" source="Kq5wCflxJIi67rFvFhmN-53" target="Kq5wCflxJIi67rFvFhmN-54">
          <mxGeometry relative="1" as="geometry" />
        </mxCell>
        <mxCell id="Kq5wCflxJIi67rFvFhmN-65" value="" style="edgeStyle=orthogonalEdgeStyle;rounded=0;orthogonalLoop=1;jettySize=auto;html=1;" edge="1" parent="1" source="Kq5wCflxJIi67rFvFhmN-53" target="Kq5wCflxJIi67rFvFhmN-64">
          <mxGeometry relative="1" as="geometry" />
        </mxCell>
        <mxCell id="Kq5wCflxJIi67rFvFhmN-53" value="for(i=0; i&amp;lt;size; ++i)" style="shape=hexagon;perimeter=hexagonPerimeter2;whiteSpace=wrap;html=1;fixedSize=1;" vertex="1" parent="1">
          <mxGeometry x="445" y="875" width="120" height="50" as="geometry" />
        </mxCell>
        <mxCell id="Kq5wCflxJIi67rFvFhmN-61" value="" style="edgeStyle=orthogonalEdgeStyle;rounded=0;orthogonalLoop=1;jettySize=auto;html=1;" edge="1" parent="1" source="Kq5wCflxJIi67rFvFhmN-54" target="Kq5wCflxJIi67rFvFhmN-55">
          <mxGeometry relative="1" as="geometry" />
        </mxCell>
        <mxCell id="Kq5wCflxJIi67rFvFhmN-54" value="people[i].phoneNumber&lt;br&gt;=numberToSearch" style="rhombus;whiteSpace=wrap;html=1;" vertex="1" parent="1">
          <mxGeometry x="590" y="865" width="165" height="70" as="geometry" />
        </mxCell>
        <mxCell id="Kq5wCflxJIi67rFvFhmN-62" value="" style="edgeStyle=orthogonalEdgeStyle;rounded=0;orthogonalLoop=1;jettySize=auto;html=1;" edge="1" parent="1" source="Kq5wCflxJIi67rFvFhmN-55" target="Kq5wCflxJIi67rFvFhmN-56">
          <mxGeometry relative="1" as="geometry" />
        </mxCell>
        <mxCell id="Kq5wCflxJIi67rFvFhmN-63" value="" style="edgeStyle=orthogonalEdgeStyle;rounded=0;orthogonalLoop=1;jettySize=auto;html=1;" edge="1" parent="1" source="Kq5wCflxJIi67rFvFhmN-55" target="Kq5wCflxJIi67rFvFhmN-57">
          <mxGeometry relative="1" as="geometry" />
        </mxCell>
        <mxCell id="Kq5wCflxJIi67rFvFhmN-55" value="for(j=size; j&amp;gt;i+1; j--)" style="shape=hexagon;perimeter=hexagonPerimeter2;whiteSpace=wrap;html=1;fixedSize=1;" vertex="1" parent="1">
          <mxGeometry x="780" y="880" width="120" height="40" as="geometry" />
        </mxCell>
        <mxCell id="Kq5wCflxJIi67rFvFhmN-56" value="people[j]=people[j-1]" style="rounded=0;whiteSpace=wrap;html=1;" vertex="1" parent="1">
          <mxGeometry x="930" y="880" width="120" height="40" as="geometry" />
        </mxCell>
        <mxCell id="Kq5wCflxJIi67rFvFhmN-57" value="people[i+1]=newPerson&lt;br&gt;size=size+1" style="rounded=0;whiteSpace=wrap;html=1;" vertex="1" parent="1">
          <mxGeometry x="775" y="950" width="130" height="40" as="geometry" />
        </mxCell>
        <mxCell id="Kq5wCflxJIi67rFvFhmN-64" value="Person not found" style="shape=parallelogram;perimeter=parallelogramPerimeter;whiteSpace=wrap;html=1;fixedSize=1;" vertex="1" parent="1">
          <mxGeometry x="445" y="810" width="120" height="40" as="geometry" />
        </mxCell>
        <mxCell id="Kq5wCflxJIi67rFvFhmN-66" value="" style="endArrow=none;html=1;rounded=0;exitX=0.5;exitY=1;exitDx=0;exitDy=0;" edge="1" parent="1" source="Kq5wCflxJIi67rFvFhmN-54">
          <mxGeometry width="50" height="50" relative="1" as="geometry">
            <mxPoint x="730" y="970" as="sourcePoint" />
            <mxPoint x="670" y="950" as="targetPoint" />
          </mxGeometry>
        </mxCell>
        <mxCell id="Kq5wCflxJIi67rFvFhmN-67" value="" style="endArrow=none;html=1;rounded=0;" edge="1" parent="1">
          <mxGeometry width="50" height="50" relative="1" as="geometry">
            <mxPoint x="670" y="950" as="sourcePoint" />
            <mxPoint x="500" y="950" as="targetPoint" />
          </mxGeometry>
        </mxCell>
        <mxCell id="Kq5wCflxJIi67rFvFhmN-68" value="" style="endArrow=classic;html=1;rounded=0;entryX=0.5;entryY=1;entryDx=0;entryDy=0;" edge="1" parent="1" target="Kq5wCflxJIi67rFvFhmN-53">
          <mxGeometry width="50" height="50" relative="1" as="geometry">
            <mxPoint x="505" y="950" as="sourcePoint" />
            <mxPoint x="780" y="920" as="targetPoint" />
          </mxGeometry>
        </mxCell>
        <mxCell id="Kq5wCflxJIi67rFvFhmN-69" value="" style="endArrow=none;html=1;rounded=0;entryX=0.583;entryY=1.012;entryDx=0;entryDy=0;entryPerimeter=0;" edge="1" parent="1" target="Kq5wCflxJIi67rFvFhmN-56">
          <mxGeometry width="50" height="50" relative="1" as="geometry">
            <mxPoint x="1000" y="970" as="sourcePoint" />
            <mxPoint x="780" y="920" as="targetPoint" />
          </mxGeometry>
        </mxCell>
        <mxCell id="Kq5wCflxJIi67rFvFhmN-70" value="" style="endArrow=classic;html=1;rounded=0;entryX=1;entryY=0.5;entryDx=0;entryDy=0;" edge="1" parent="1" target="Kq5wCflxJIi67rFvFhmN-57">
          <mxGeometry width="50" height="50" relative="1" as="geometry">
            <mxPoint x="1000" y="970" as="sourcePoint" />
            <mxPoint x="780" y="920" as="targetPoint" />
          </mxGeometry>
        </mxCell>
        <mxCell id="Kq5wCflxJIi67rFvFhmN-75" value="" style="edgeStyle=orthogonalEdgeStyle;rounded=0;orthogonalLoop=1;jettySize=auto;html=1;" edge="1" parent="1" source="Kq5wCflxJIi67rFvFhmN-71" target="Kq5wCflxJIi67rFvFhmN-74">
          <mxGeometry relative="1" as="geometry" />
        </mxCell>
        <mxCell id="Kq5wCflxJIi67rFvFhmN-71" value="size=0;&lt;br&gt;people[size++]=&quot;Zimnov&quot;,, &quot;Oleksandr&quot;, &quot;Serhiyovych&quot;, &quot;Shevchenko 12&quot;, &quot;0631761061&quot;, 19 &lt;br&gt;people[size++]=&quot;Silver&quot;, &quot;Vladyslav&quot;, &quot;Bohdanovich&quot;, &quot;Shukhevicha 17&quot;, &quot;0662356956&quot;, 25&lt;br&gt;people[size++]=&quot;Deruk&quot;, &quot;Sergey&quot;, &quot;Andreyovych&quot;, &quot;Mazepy 21&quot;, &quot;0996363524&quot;, 35" style="rounded=0;whiteSpace=wrap;html=1;" vertex="1" parent="1">
          <mxGeometry x="220" y="1010" width="300" height="110" as="geometry" />
        </mxCell>
        <mxCell id="Kq5wCflxJIi67rFvFhmN-73" value="" style="endArrow=classic;html=1;rounded=0;exitX=0;exitY=0.5;exitDx=0;exitDy=0;" edge="1" parent="1" source="Kq5wCflxJIi67rFvFhmN-57">
          <mxGeometry width="50" height="50" relative="1" as="geometry">
            <mxPoint x="530" y="1050" as="sourcePoint" />
            <mxPoint x="370" y="970" as="targetPoint" />
          </mxGeometry>
        </mxCell>
        <mxCell id="Kq5wCflxJIi67rFvFhmN-77" value="" style="edgeStyle=orthogonalEdgeStyle;rounded=0;orthogonalLoop=1;jettySize=auto;html=1;" edge="1" parent="1" source="Kq5wCflxJIi67rFvFhmN-74" target="Kq5wCflxJIi67rFvFhmN-76">
          <mxGeometry relative="1" as="geometry" />
        </mxCell>
        <mxCell id="Kq5wCflxJIi67rFvFhmN-74" value="writeToFile(people, size, &quot;people.dat&quot;)&lt;br&gt;readFromFile(people, size, &quot;people.dat&quot;)" style="rounded=0;whiteSpace=wrap;html=1;" vertex="1" parent="1">
          <mxGeometry x="310" y="1140" width="120" height="60" as="geometry" />
        </mxCell>
        <mxCell id="Kq5wCflxJIi67rFvFhmN-79" value="" style="edgeStyle=orthogonalEdgeStyle;rounded=0;orthogonalLoop=1;jettySize=auto;html=1;" edge="1" parent="1" source="Kq5wCflxJIi67rFvFhmN-76" target="Kq5wCflxJIi67rFvFhmN-78">
          <mxGeometry relative="1" as="geometry" />
        </mxCell>
        <mxCell id="Kq5wCflxJIi67rFvFhmN-76" value="for(i=0; i&amp;lt;size; ++i)" style="shape=hexagon;perimeter=hexagonPerimeter2;whiteSpace=wrap;html=1;fixedSize=1;" vertex="1" parent="1">
          <mxGeometry x="310" y="1220" width="120" height="40" as="geometry" />
        </mxCell>
        <mxCell id="Kq5wCflxJIi67rFvFhmN-78" value="printPerson(people[i])" style="rounded=0;whiteSpace=wrap;html=1;" vertex="1" parent="1">
          <mxGeometry x="310" y="1280" width="120" height="30" as="geometry" />
        </mxCell>
        <mxCell id="Kq5wCflxJIi67rFvFhmN-88" value="" style="edgeStyle=orthogonalEdgeStyle;rounded=0;orthogonalLoop=1;jettySize=auto;html=1;" edge="1" parent="1" source="Kq5wCflxJIi67rFvFhmN-80" target="Kq5wCflxJIi67rFvFhmN-87">
          <mxGeometry relative="1" as="geometry" />
        </mxCell>
        <mxCell id="Kq5wCflxJIi67rFvFhmN-80" value="ageToDelete=35&lt;br&gt;deleteByAge(people, size, ageToDelete)" style="rounded=0;whiteSpace=wrap;html=1;" vertex="1" parent="1">
          <mxGeometry x="310" y="1340" width="120" height="50" as="geometry" />
        </mxCell>
        <mxCell id="Kq5wCflxJIi67rFvFhmN-81" value="" style="endArrow=none;html=1;rounded=0;entryX=1;entryY=0.5;entryDx=0;entryDy=0;" edge="1" parent="1" target="Kq5wCflxJIi67rFvFhmN-76">
          <mxGeometry width="50" height="50" relative="1" as="geometry">
            <mxPoint x="460" y="1240" as="sourcePoint" />
            <mxPoint x="480" y="1330" as="targetPoint" />
          </mxGeometry>
        </mxCell>
        <mxCell id="Kq5wCflxJIi67rFvFhmN-82" value="" style="endArrow=none;html=1;rounded=0;" edge="1" parent="1">
          <mxGeometry width="50" height="50" relative="1" as="geometry">
            <mxPoint x="460" y="1360" as="sourcePoint" />
            <mxPoint x="460" y="1240" as="targetPoint" />
          </mxGeometry>
        </mxCell>
        <mxCell id="Kq5wCflxJIi67rFvFhmN-83" value="" style="endArrow=classic;html=1;rounded=0;entryX=1;entryY=0.5;entryDx=0;entryDy=0;" edge="1" parent="1" target="Kq5wCflxJIi67rFvFhmN-80">
          <mxGeometry width="50" height="50" relative="1" as="geometry">
            <mxPoint x="460" y="1360" as="sourcePoint" />
            <mxPoint x="480" y="1330" as="targetPoint" />
          </mxGeometry>
        </mxCell>
        <mxCell id="Kq5wCflxJIi67rFvFhmN-84" value="" style="endArrow=none;html=1;rounded=0;entryX=0;entryY=0.5;entryDx=0;entryDy=0;" edge="1" parent="1" target="Kq5wCflxJIi67rFvFhmN-78">
          <mxGeometry width="50" height="50" relative="1" as="geometry">
            <mxPoint x="290" y="1295" as="sourcePoint" />
            <mxPoint x="480" y="1330" as="targetPoint" />
          </mxGeometry>
        </mxCell>
        <mxCell id="Kq5wCflxJIi67rFvFhmN-85" value="" style="endArrow=none;html=1;rounded=0;" edge="1" parent="1">
          <mxGeometry width="50" height="50" relative="1" as="geometry">
            <mxPoint x="290" y="1300" as="sourcePoint" />
            <mxPoint x="290" y="1240" as="targetPoint" />
          </mxGeometry>
        </mxCell>
        <mxCell id="Kq5wCflxJIi67rFvFhmN-86" value="" style="endArrow=classic;html=1;rounded=0;entryX=0;entryY=0.5;entryDx=0;entryDy=0;" edge="1" parent="1" target="Kq5wCflxJIi67rFvFhmN-76">
          <mxGeometry width="50" height="50" relative="1" as="geometry">
            <mxPoint x="290" y="1240" as="sourcePoint" />
            <mxPoint x="480" y="1330" as="targetPoint" />
          </mxGeometry>
        </mxCell>
        <mxCell id="Kq5wCflxJIi67rFvFhmN-90" value="" style="edgeStyle=orthogonalEdgeStyle;rounded=0;orthogonalLoop=1;jettySize=auto;html=1;" edge="1" parent="1" source="Kq5wCflxJIi67rFvFhmN-87" target="Kq5wCflxJIi67rFvFhmN-89">
          <mxGeometry relative="1" as="geometry" />
        </mxCell>
        <mxCell id="Kq5wCflxJIi67rFvFhmN-87" value="Output ageToDelete" style="shape=parallelogram;perimeter=parallelogramPerimeter;whiteSpace=wrap;html=1;fixedSize=1;" vertex="1" parent="1">
          <mxGeometry x="305" y="1410" width="130" height="30" as="geometry" />
        </mxCell>
        <mxCell id="Kq5wCflxJIi67rFvFhmN-89" value="for(i=0; i&amp;lt;size; ++i)" style="shape=hexagon;perimeter=hexagonPerimeter2;whiteSpace=wrap;html=1;fixedSize=1;" vertex="1" parent="1">
          <mxGeometry x="310" y="1460" width="120" height="30" as="geometry" />
        </mxCell>
        <mxCell id="Kq5wCflxJIi67rFvFhmN-91" value="printPerson(people[i])" style="rounded=0;whiteSpace=wrap;html=1;" vertex="1" parent="1">
          <mxGeometry x="310" y="1510" width="120" height="30" as="geometry" />
        </mxCell>
        <mxCell id="Kq5wCflxJIi67rFvFhmN-92" value="" style="endArrow=none;html=1;rounded=0;entryX=0;entryY=0.5;entryDx=0;entryDy=0;" edge="1" parent="1" target="Kq5wCflxJIi67rFvFhmN-91">
          <mxGeometry width="50" height="50" relative="1" as="geometry">
            <mxPoint x="280" y="1525" as="sourcePoint" />
            <mxPoint x="480" y="1490" as="targetPoint" />
          </mxGeometry>
        </mxCell>
        <mxCell id="Kq5wCflxJIi67rFvFhmN-93" value="" style="endArrow=none;html=1;rounded=0;" edge="1" parent="1">
          <mxGeometry width="50" height="50" relative="1" as="geometry">
            <mxPoint x="280" y="1530" as="sourcePoint" />
            <mxPoint x="280" y="1480" as="targetPoint" />
          </mxGeometry>
        </mxCell>
        <mxCell id="Kq5wCflxJIi67rFvFhmN-94" value="" style="endArrow=classic;html=1;rounded=0;entryX=0;entryY=0.5;entryDx=0;entryDy=0;" edge="1" parent="1" target="Kq5wCflxJIi67rFvFhmN-89">
          <mxGeometry width="50" height="50" relative="1" as="geometry">
            <mxPoint x="280" y="1480" as="sourcePoint" />
            <mxPoint x="480" y="1490" as="targetPoint" />
          </mxGeometry>
        </mxCell>
        <mxCell id="Kq5wCflxJIi67rFvFhmN-95" value="" style="endArrow=none;html=1;rounded=0;entryX=1;entryY=0.5;entryDx=0;entryDy=0;" edge="1" parent="1" target="Kq5wCflxJIi67rFvFhmN-89">
          <mxGeometry width="50" height="50" relative="1" as="geometry">
            <mxPoint x="470" y="1475" as="sourcePoint" />
            <mxPoint x="480" y="1490" as="targetPoint" />
          </mxGeometry>
        </mxCell>
        <mxCell id="Kq5wCflxJIi67rFvFhmN-96" value="" style="endArrow=none;html=1;rounded=0;" edge="1" parent="1">
          <mxGeometry width="50" height="50" relative="1" as="geometry">
            <mxPoint x="470" y="1610" as="sourcePoint" />
            <mxPoint x="470" y="1470" as="targetPoint" />
          </mxGeometry>
        </mxCell>
        <mxCell id="Kq5wCflxJIi67rFvFhmN-100" value="" style="edgeStyle=orthogonalEdgeStyle;rounded=0;orthogonalLoop=1;jettySize=auto;html=1;" edge="1" parent="1" source="Kq5wCflxJIi67rFvFhmN-97" target="Kq5wCflxJIi67rFvFhmN-99">
          <mxGeometry relative="1" as="geometry" />
        </mxCell>
        <mxCell id="Kq5wCflxJIi67rFvFhmN-97" value="numberToSearch=&lt;br&gt;0631761061&lt;br&gt;newPerson=&quot;New&quot;, &quot;Oleg&quot;, &quot;Nazariiovych&quot;, &quot;Zolota 34&quot;, &quot;0935561232&quot;, 40&lt;br&gt;addNumber(people, size, numberToSearch, newPerson)" style="rounded=0;whiteSpace=wrap;html=1;" vertex="1" parent="1">
          <mxGeometry x="280" y="1550" width="180" height="120" as="geometry" />
        </mxCell>
        <mxCell id="Kq5wCflxJIi67rFvFhmN-98" value="" style="endArrow=classic;html=1;rounded=0;entryX=1;entryY=0.5;entryDx=0;entryDy=0;" edge="1" parent="1" target="Kq5wCflxJIi67rFvFhmN-97">
          <mxGeometry width="50" height="50" relative="1" as="geometry">
            <mxPoint x="470" y="1610" as="sourcePoint" />
            <mxPoint x="480" y="1490" as="targetPoint" />
          </mxGeometry>
        </mxCell>
        <mxCell id="Kq5wCflxJIi67rFvFhmN-99" value="Output numberToSearch" style="shape=parallelogram;perimeter=parallelogramPerimeter;whiteSpace=wrap;html=1;fixedSize=1;" vertex="1" parent="1">
          <mxGeometry x="310" y="1690" width="120" height="40" as="geometry" />
        </mxCell>
        <mxCell id="Kq5wCflxJIi67rFvFhmN-101" value="for(i=0; i&amp;lt;size; i++)" style="shape=hexagon;perimeter=hexagonPerimeter2;whiteSpace=wrap;html=1;fixedSize=1;" vertex="1" parent="1">
          <mxGeometry x="310" y="1753.5" width="120" height="36" as="geometry" />
        </mxCell>
        <mxCell id="Kq5wCflxJIi67rFvFhmN-102" value="printPerson(people[i])" style="rounded=0;whiteSpace=wrap;html=1;" vertex="1" parent="1">
          <mxGeometry x="310" y="1810" width="120" height="40" as="geometry" />
        </mxCell>
        <mxCell id="Kq5wCflxJIi67rFvFhmN-103" value="End" style="ellipse;whiteSpace=wrap;html=1;" vertex="1" parent="1">
          <mxGeometry x="310" y="1900" width="120" height="40" as="geometry" />
        </mxCell>
        <mxCell id="Kq5wCflxJIi67rFvFhmN-107" value="" style="endArrow=classic;html=1;rounded=0;exitX=0.5;exitY=1;exitDx=0;exitDy=0;entryX=0.5;entryY=0;entryDx=0;entryDy=0;" edge="1" parent="1" source="Kq5wCflxJIi67rFvFhmN-99" target="Kq5wCflxJIi67rFvFhmN-101">
          <mxGeometry width="50" height="50" relative="1" as="geometry">
            <mxPoint x="430" y="1780" as="sourcePoint" />
            <mxPoint x="480" y="1730" as="targetPoint" />
          </mxGeometry>
        </mxCell>
        <mxCell id="Kq5wCflxJIi67rFvFhmN-108" value="" style="endArrow=classic;html=1;rounded=0;exitX=0.5;exitY=1;exitDx=0;exitDy=0;entryX=0.5;entryY=0;entryDx=0;entryDy=0;" edge="1" parent="1" source="Kq5wCflxJIi67rFvFhmN-101" target="Kq5wCflxJIi67rFvFhmN-102">
          <mxGeometry width="50" height="50" relative="1" as="geometry">
            <mxPoint x="430" y="1780" as="sourcePoint" />
            <mxPoint x="480" y="1730" as="targetPoint" />
          </mxGeometry>
        </mxCell>
        <mxCell id="Kq5wCflxJIi67rFvFhmN-109" value="" style="endArrow=none;html=1;rounded=0;exitX=0;exitY=0.5;exitDx=0;exitDy=0;" edge="1" parent="1" source="Kq5wCflxJIi67rFvFhmN-102">
          <mxGeometry width="50" height="50" relative="1" as="geometry">
            <mxPoint x="430" y="1780" as="sourcePoint" />
            <mxPoint x="290" y="1830" as="targetPoint" />
          </mxGeometry>
        </mxCell>
        <mxCell id="Kq5wCflxJIi67rFvFhmN-110" value="" style="endArrow=none;html=1;rounded=0;" edge="1" parent="1">
          <mxGeometry width="50" height="50" relative="1" as="geometry">
            <mxPoint x="290" y="1830" as="sourcePoint" />
            <mxPoint x="290" y="1770" as="targetPoint" />
          </mxGeometry>
        </mxCell>
        <mxCell id="Kq5wCflxJIi67rFvFhmN-111" value="" style="endArrow=classic;html=1;rounded=0;entryX=0;entryY=0.5;entryDx=0;entryDy=0;" edge="1" parent="1" target="Kq5wCflxJIi67rFvFhmN-101">
          <mxGeometry width="50" height="50" relative="1" as="geometry">
            <mxPoint x="290" y="1770" as="sourcePoint" />
            <mxPoint x="480" y="1730" as="targetPoint" />
          </mxGeometry>
        </mxCell>
        <mxCell id="Kq5wCflxJIi67rFvFhmN-112" value="" style="endArrow=none;html=1;rounded=0;exitX=1;exitY=0.5;exitDx=0;exitDy=0;" edge="1" parent="1" source="Kq5wCflxJIi67rFvFhmN-101">
          <mxGeometry width="50" height="50" relative="1" as="geometry">
            <mxPoint x="430" y="1780" as="sourcePoint" />
            <mxPoint x="460" y="1770" as="targetPoint" />
          </mxGeometry>
        </mxCell>
        <mxCell id="Kq5wCflxJIi67rFvFhmN-113" value="" style="endArrow=none;html=1;rounded=0;" edge="1" parent="1">
          <mxGeometry width="50" height="50" relative="1" as="geometry">
            <mxPoint x="460" y="1880" as="sourcePoint" />
            <mxPoint x="460" y="1770" as="targetPoint" />
          </mxGeometry>
        </mxCell>
        <mxCell id="Kq5wCflxJIi67rFvFhmN-114" value="" style="endArrow=none;html=1;rounded=0;" edge="1" parent="1">
          <mxGeometry width="50" height="50" relative="1" as="geometry">
            <mxPoint x="460" y="1880" as="sourcePoint" />
            <mxPoint x="370" y="1880" as="targetPoint" />
          </mxGeometry>
        </mxCell>
        <mxCell id="Kq5wCflxJIi67rFvFhmN-115" value="" style="endArrow=classic;html=1;rounded=0;entryX=0.5;entryY=0;entryDx=0;entryDy=0;" edge="1" parent="1" target="Kq5wCflxJIi67rFvFhmN-103">
          <mxGeometry width="50" height="50" relative="1" as="geometry">
            <mxPoint x="370" y="1880" as="sourcePoint" />
            <mxPoint x="480" y="1730" as="targetPoint" />
          </mxGeometry>
        </mxCell>
        <mxCell id="Kq5wCflxJIi67rFvFhmN-116" value="True" style="text;html=1;strokeColor=none;fillColor=none;align=center;verticalAlign=middle;whiteSpace=wrap;rounded=0;" vertex="1" parent="1">
          <mxGeometry x="810" y="540" width="60" height="30" as="geometry" />
        </mxCell>
        <mxCell id="Kq5wCflxJIi67rFvFhmN-117" value="True" style="text;html=1;strokeColor=none;fillColor=none;align=center;verticalAlign=middle;whiteSpace=wrap;rounded=0;" vertex="1" parent="1">
          <mxGeometry x="685" y="700" width="60" height="30" as="geometry" />
        </mxCell>
        <mxCell id="Kq5wCflxJIi67rFvFhmN-118" value="True" style="text;html=1;strokeColor=none;fillColor=none;align=center;verticalAlign=middle;whiteSpace=wrap;rounded=0;" vertex="1" parent="1">
          <mxGeometry x="780" y="700" width="60" height="30" as="geometry" />
        </mxCell>
        <mxCell id="Kq5wCflxJIi67rFvFhmN-119" value="True" style="text;html=1;strokeColor=none;fillColor=none;align=center;verticalAlign=middle;whiteSpace=wrap;rounded=0;" vertex="1" parent="1">
          <mxGeometry x="550" y="875" width="60" height="30" as="geometry" />
        </mxCell>
        <mxCell id="Kq5wCflxJIi67rFvFhmN-120" value="True" style="text;html=1;strokeColor=none;fillColor=none;align=center;verticalAlign=middle;whiteSpace=wrap;rounded=0;" vertex="1" parent="1">
          <mxGeometry x="730" y="875" width="60" height="30" as="geometry" />
        </mxCell>
        <mxCell id="Kq5wCflxJIi67rFvFhmN-121" value="True" style="text;html=1;strokeColor=none;fillColor=none;align=center;verticalAlign=middle;whiteSpace=wrap;rounded=0;" vertex="1" parent="1">
          <mxGeometry x="880" y="875" width="60" height="30" as="geometry" />
        </mxCell>
        <mxCell id="Kq5wCflxJIi67rFvFhmN-122" value="True" style="text;html=1;strokeColor=none;fillColor=none;align=center;verticalAlign=middle;whiteSpace=wrap;rounded=0;" vertex="1" parent="1">
          <mxGeometry x="365" y="1260" width="60" height="30" as="geometry" />
        </mxCell>
        <mxCell id="Kq5wCflxJIi67rFvFhmN-123" value="True" style="text;html=1;strokeColor=none;fillColor=none;align=center;verticalAlign=middle;whiteSpace=wrap;rounded=0;" vertex="1" parent="1">
          <mxGeometry x="370" y="1490" width="60" height="30" as="geometry" />
        </mxCell>
        <mxCell id="Kq5wCflxJIi67rFvFhmN-124" value="" style="endArrow=classic;html=1;rounded=0;exitX=0.5;exitY=1;exitDx=0;exitDy=0;entryX=0.5;entryY=0;entryDx=0;entryDy=0;" edge="1" parent="1" source="Kq5wCflxJIi67rFvFhmN-89" target="Kq5wCflxJIi67rFvFhmN-91">
          <mxGeometry width="50" height="50" relative="1" as="geometry">
            <mxPoint x="370" y="1540" as="sourcePoint" />
            <mxPoint x="580" y="1500" as="targetPoint" />
          </mxGeometry>
        </mxCell>
        <mxCell id="Kq5wCflxJIi67rFvFhmN-125" value="True" style="text;html=1;strokeColor=none;fillColor=none;align=center;verticalAlign=middle;whiteSpace=wrap;rounded=0;" vertex="1" parent="1">
          <mxGeometry x="370" y="1789.5" width="60" height="30" as="geometry" />
        </mxCell>
        <mxCell id="Kq5wCflxJIi67rFvFhmN-126" value="False" style="text;html=1;strokeColor=none;fillColor=none;align=center;verticalAlign=middle;whiteSpace=wrap;rounded=0;" vertex="1" parent="1">
          <mxGeometry x="770" y="590" width="60" height="30" as="geometry" />
        </mxCell>
        <mxCell id="Kq5wCflxJIi67rFvFhmN-127" value="False" style="text;html=1;strokeColor=none;fillColor=none;align=center;verticalAlign=middle;whiteSpace=wrap;rounded=0;" vertex="1" parent="1">
          <mxGeometry x="755" y="675" width="60" height="30" as="geometry" />
        </mxCell>
        <mxCell id="Kq5wCflxJIi67rFvFhmN-128" value="False" style="text;html=1;strokeColor=none;fillColor=none;align=center;verticalAlign=middle;whiteSpace=wrap;rounded=0;" vertex="1" parent="1">
          <mxGeometry x="640" y="745" width="60" height="30" as="geometry" />
        </mxCell>
        <mxCell id="Kq5wCflxJIi67rFvFhmN-129" value="False" style="text;html=1;strokeColor=none;fillColor=none;align=center;verticalAlign=middle;whiteSpace=wrap;rounded=0;" vertex="1" parent="1">
          <mxGeometry x="670" y="925" width="60" height="30" as="geometry" />
        </mxCell>
        <mxCell id="Kq5wCflxJIi67rFvFhmN-130" value="False" style="text;html=1;strokeColor=none;fillColor=none;align=center;verticalAlign=middle;whiteSpace=wrap;rounded=0;" vertex="1" parent="1">
          <mxGeometry x="840" y="920" width="60" height="30" as="geometry" />
        </mxCell>
        <mxCell id="Kq5wCflxJIi67rFvFhmN-131" value="False" style="text;html=1;strokeColor=none;fillColor=none;align=center;verticalAlign=middle;whiteSpace=wrap;rounded=0;" vertex="1" parent="1">
          <mxGeometry x="414" y="1210" width="60" height="30" as="geometry" />
        </mxCell>
        <mxCell id="Kq5wCflxJIi67rFvFhmN-132" value="False" style="text;html=1;strokeColor=none;fillColor=none;align=center;verticalAlign=middle;whiteSpace=wrap;rounded=0;" vertex="1" parent="1">
          <mxGeometry x="420" y="1450" width="60" height="30" as="geometry" />
        </mxCell>
        <mxCell id="Kq5wCflxJIi67rFvFhmN-133" value="False" style="text;html=1;strokeColor=none;fillColor=none;align=center;verticalAlign=middle;whiteSpace=wrap;rounded=0;" vertex="1" parent="1">
          <mxGeometry x="420" y="1740" width="60" height="30" as="geometry" />
        </mxCell>
        <mxCell id="Kq5wCflxJIi67rFvFhmN-134" value="False" style="text;html=1;strokeColor=none;fillColor=none;align=center;verticalAlign=middle;whiteSpace=wrap;rounded=0;" vertex="1" parent="1">
          <mxGeometry x="500" y="850" width="60" height="30" as="geometry" />
        </mxCell>
      </root>
    </mxGraphModel>
  </diagram>
</mxfile>
